<svg xmlns="http://www.w3.org/2000/svg" width="462.9100498862757" height="216.02468994692867" version="1.1" viewBox="0 0 30.008 13.528">
 <title>Packet Clearing House logo</title>
 <g transform="matrix(.23204 0 0 .23204 -.18331 -.1253)">
  <path d="m120.91 23.48 8.83-1.09v-12.38l-0.55 0.4a111.37 111.37 0 0 1-15.66 9.54l-7.59 0.93-1.93 0.23v3.1a162.73 162.73 0 0 1-23.67 7.24 679.57 679.57 0 0 1-39.43-4.12v-1.14l-1.54 0.19-2.81 0.34a520.65 520.65 0 0 1-35.66-6.31l-0.1-0.02v5.07a361.41 361.41 0 0 0 20.35 3.73v6.23c-8.29 0.1-15.33 0.3-20.35 0.6v3.01h0.03c2.99-0.18 6.7-0.31 10.96-0.42v2.07c-3.57 0.3-7.23 0.6-11 0.88v3l0.99-0.08v0.89h1.52v-1.01l8.48-0.67v1.68h1.75v-1.82l3.45-0.27 4.16-0.32v2.4h2.76v-2.62l1.05-0.08v2.7h2.08v-2.86c3.8-0.3 7.5-0.6 11.11-0.91v2.23c-1.56 0.33-3.06 0.68-4.5 1.05l0.06 0.5h14.05v-0.13c3.8-0.57 7.75-1.05 11.8-1.46v2.35c0.72 0.12 1.46 0.2 2.22 0.27v-2.84l1.03-0.1v3.02a32.79 32.79 0 0 0 3.08 0v-3.28c4.54-0.37 9.12-0.65 13.65-0.87v3.04h2.23v-3.14l3-0.13v3.27h3.73v-3.4l1.2-0.03v3.43h1.8v-3.47c2.82-0.07 5.57-0.11 8.23-0.14v3.62h1.81v-3.64l2.46-0.02v3.66h4.4v-3.66c5.37 0.02 10.1 0.1 13.87 0.21v3.45h1.47v-3.4c2.42 0.08 4.36 0.16 5.7 0.24l0.3 0.01v-4l-0.24-0.01c-1.82-0.15-3.75-0.29-5.76-0.42v-1.1l5.71 0.11h0.29v-3.07h-0.27c-7.14-0.13-14.16-0.34-21.07-0.63v-4.17c4.3-1.6 8.46-3.4 12.5-5.45m-99.75 16.4-7.61 0.66v-1.97c2.39-0.05 4.94-0.1 7.61-0.13v1.43m2.76-0.25v-1.2c3.95-0.04 8.14-0.06 12.51-0.06-4.02 0.44-8.18 0.86-12.5 1.26m14.24-4.27c-5 0-9.78 0-14.25 0.05v-4.35l5.38-0.66c2.89 0.4 5.84 0.77 8.87 1.13v3.83m6.96 7.18c-1.43 0.23-2.84 0.48-4.2 0.74v-1.92l4.2-0.38v1.56m14.43-1.86c-4.05 0.4-8 0.88-11.8 1.45v-1.4c4.04-0.38 7.97-0.8 11.8-1.25v1.2m0-5.28-0.82 0.13c-6.09-0.08-12.08-0.14-17.82-0.16v-3.52c5.94 0.66 12.14 1.27 18.64 1.8v1.75m3.26 4.97-1.02 0.09v-1.26l1.02-0.12v1.28m-1.02-5.32v-1.22l5.02 0.38c-1.65 0.29-3.32 0.57-5.02 0.84m17.75 4.19c-4.53 0.22-9.12 0.5-13.65 0.87v-1.42c0.08 0 0.16-0.02 0.23-0.03 4.48 0.08 8.97 0.18 13.42 0.3v0.28m2.23-0.1v-0.13l1.85 0.05-1.85 0.08m3-3.06-2.28-0.07a220 220 0 0 0 2.29-0.45v0.52m4.92 0.14c-0.4 0-0.79-0.02-1.19-0.03v-0.69l1.2 0.06v0.66m10.03 0.36c-2.69-0.11-5.43-0.2-8.22-0.3v-0.48l0.93-0.11 7.3 0.3v0.59m4.27 0.17-2.46-0.1v-0.6l2.46 0.1v0.6m0-3.83-2.46-0.12v-0.04l-0.27 0.03a654.6 654.6 0 0 1-4.09-0.21c2.32-0.65 4.58-1.34 6.82-2.08v2.42m18.26 3.75v1.03c-4.27-0.28-8.94-0.53-13.87-0.76v-0.64c4.5 0.14 9.13 0.26 13.87 0.37z" fill="#e4e5e6"/>
  <g fill="#fff">
   <path d="m34.51 38.82v0.37l1.87-0.2v-0.37l-1.87 0.2m2.13-0.22v0.37c0.64-0.07 1.27-0.14 1.52-0.15v-0.37c-0.25 0-0.88 0.08-1.52 0.14m28.2-3.73v0.4l2.28-0.37v-0.42l-2.28 0.4m-56.97 6.37v0.39l1.51-0.13v-0.38l-1.51 0.12m5.24-0.44v0.39l1.58-0.14v-0.37l-1.58 0.13m-1.77 0.15v0.38l1.56-0.13v-0.38l-1.56 0.13m-5.17 0.42v0.4l1.5-0.13v-0.39l-1.5 0.12m3.42-0.28v0.38l1.53-0.12v-0.39l-1.53 0.13m-8.35 0.67v0.4l1.42-0.11v-0.4l-1.43 0.11m3.27-0.26v0.4l1.47-0.12v-0.4l-1.47 0.12m-3.7 0.29v0.42l0.24-0.03v-0.4l-0.24 0.02m2.05-0.17v0.4l1.45-0.11v-0.4l-1.44 0.11m12.05-0.98v0.37l1.61-0.14v-0.37l-1.6 0.14m11.4-1.03v0.37l1.75-0.17v-0.37l-1.75 0.17m2-0.19v0.37l1.78-0.18v-0.36l-1.78 0.17m4.1-0.41v0.37l1.84-0.19v-0.37l-1.84 0.19m-8.08 0.79v0.37l1.74-0.17v-0.36l-1.74 0.16m6.01-0.58v0.37l1.81-0.18v-0.37l-1.8 0.18m-13.62 1.26v0.38l1.64-0.15v-0.37l-1.64 0.14m7.17-0.64v0.37l0.2-0.02v-0.37l-0.2 0.02m-5.31 0.48v0.37l1.66-0.14v-0.38l-1.66 0.15m1.89-0.17v0.37l0.67-0.06v-0.37l-0.67 0.06m63.33-9.16v0.48c0.85-0.2 1.7-0.42 2.53-0.63v-0.5c-0.84 0.23-1.68 0.44-2.53 0.65m41.04-17.04v0.7c1.04-0.68 2.06-1.37 3.08-2.09v-0.67c-1.02 0.7-2.05 1.39-3.08 2.06m-35.24 15.51v0.5c0.88-0.24 1.75-0.49 2.6-0.74v-0.51c-0.85 0.26-1.72 0.5-2.6 0.75m12.14-3.37 2.24-0.85v-0.6c-0.74 0.3-1.48 0.59-2.24 0.87v0.58m19.65-10v0.71c1.02-0.61 2.03-1.24 3.03-1.88v-0.7c-1 0.64-2.01 1.26-3.03 1.87m-25.81 11.57v0.53l2.69-0.88v-0.55l-2.69 0.9m19.16-7.88 1.72-0.2 1.12-0.61v-0.7c-0.93 0.52-1.88 1.03-2.84 1.52m-16.1 6.84v0.56c0.92-0.31 1.83-0.63 2.73-0.96v-0.58l-2.73 0.98m-11.96 3.63v0.49l2.56-0.68v-0.5l-2.56 0.69m43.04-19.64-1.38 0.98v0.67l1.38-1.01v-0.65m-11.73 7.44v0.7c1.01-0.55 2-1.12 2.99-1.7v-0.71c-0.99 0.58-1.98 1.15-2.99 1.71m-25.42 10.55v0.51l2.65-0.8v-0.53l-2.65 0.82m-24.33 5.65-0.82 0.15v0.41l2.3-0.4v-0.08l-1.48-0.08m14.92-2.63 0.3-0.07v-0.48l-1.85 0.45 1.55 0.1m-3.69 0.38h0.07v-0.02l-0.07 0.02m0.32-0.07v0.1l0.84 0.06v-0.34h-0.01l-0.83 0.18m1.18-0.15v0.34h0.05l0.44-0.1 0.17-0.04v-0.16l-0.66-0.05m0.91 0.07v0.08l0.25-0.06-0.25-0.02m-69.22-8.67v0.49l2.73 0.5v-0.5l-2.73-0.49m-6.34-1.23v0.5l2.81 0.55v-0.49l-2.81-0.55m3.19 0.63v0.48l2.77 0.53v-0.49l-2.77-0.53m6.25 1.16v0.49l2.69 0.47v-0.48l-2.7-0.48m14.82 2.45v0.46l2.49 0.36v-0.45l-2.5-0.37m2.84 0.87 0.12 0.02 1.7-0.2-1.82-0.28v0.46m-5.7-1.32v0.47l2.52 0.38v-0.46l-2.52-0.39m-8.89-1.45v0.47l2.65 0.45v-0.47l-2.65-0.46m-15.73-2.99v0.5l2.85 0.58v-0.5l-2.85-0.57m18.74 3.49v0.48l2.6 0.43v-0.48l-2.6-0.42m2.96 0.49v0.46l2.57 0.4v-0.46l-2.57-0.4m-24-4.47v0.49l1.9 0.4v-0.5l-1.9-0.4m53.78 8.52v0.4l2.17 0.23v-0.4l-2.17-0.23m-2.5-0.29v0.4c0.73 0.1 1.47 0.18 2.2 0.26v-0.4l-2.2-0.26m4.97 0.55v0.4l2.14 0.23v-0.4l-2.14-0.22m2.44 0.26v0.39l2.1 0.2v-0.38l-2.1-0.21m-9.96-1.12v0.42l2.24 0.25v-0.4l-2.24-0.27m-7.87-0.99v0.44l2.34 0.3v-0.43l-2.34-0.3m-0.75-0.1v0.43l0.42 0.05v-0.43l-0.42-0.05m3.41 0.44v0.43l2.31 0.28v-0.42l-2.31-0.29m2.63 0.33v0.42l2.27 0.27v-0.41l-2.27-0.28m14.93 1.67v0.39l2.08 0.2v-0.38l-2.08-0.21m11.46 1.07v0.36l1.92 0.16v-0.36l-1.92-0.16m-4.48-0.4v0.37l1.99 0.18v-0.37l-1.99-0.18m-2.29-0.21v0.37l2.02 0.19v-0.37l-2.02-0.2m4.55 0.42v0.37l1.96 0.17v-0.37c-0.66-0.05-1.3-0.1-1.96-0.17m6.56 0.91 0.53 0.04 1.16-0.26-1.69-0.14v0.36m-2.15-0.53v0.35l1.9 0.16v-0.36l-1.9-0.15m-11.28-1.01v0.38l2.04 0.19v-0.38l-2.04-0.2m65.05 3.98 0.44 0.01v-0.28l-0.44-0.01v0.28m-19.54-0.87v0.3l1.45 0.05v-0.3l-1.45-0.05m1.65 0.07v0.29l1.42 0.05v-0.29l-1.42-0.05m1.61 0.06v0.29l1.4 0.05v-0.29l-1.4-0.05m6.06 0.2v0.3l-1.34-0.05v-0.29l1.34 0.04m-2.89-0.09v0.29l1.36 0.04v-0.29l-1.36-0.04m3.06 0.11v0.28l1.32 0.03v-0.28l-1.32-0.04m-4.63-0.15v0.29l1.38 0.04v-0.29l-1.38-0.04m-6.22-0.24v0.3c0.39 0 0.78 0.02 1.16 0.04v-0.3l-1.16-0.04m19.53 0.61v0.28l1.2 0.03v-0.29l-1.2-0.02m-1.4-0.03v0.28l1.23 0.03v-0.29l-1.23-0.02m-2.84-0.07v0.28l1.26 0.03v-0.28l-1.26-0.03m-1.46-0.04v0.29c0.43 0 0.85 0.02 1.28 0.03v-0.28l-1.28-0.04m2.9 0.08v0.28l1.24 0.03v-0.29l-1.24-0.02m-4.37-0.12v0.29l1.3 0.03v-0.28l-1.3-0.04m-17.82-0.38 1.07 0.05v-0.3l-1.07-0.05v0.3m-1.39-0.37v0.3l1.18 0.06v-0.3l-1.18-0.06m-4.01-0.21v0.31l0.25 0.02 1.35-0.17v-0.07l-1.6-0.1m1.83 0.11v0.03l0.2-0.02-0.2-0.01m-3.11-0.17-0.57 0.15v0.13l1.63 0.09v-0.32l-1.06-0.05m-0.96 0.26h0.17v-0.04c-0.06 0-0.11 0.02-0.17 0.04m-15.87 3.51v0.13l-0.65-0.02 0.65-0.11m5.34 0.26-0.94-0.03v-0.38l0.94 0.02v0.39m-1.18-0.42v0.39l-1.81-0.05v-0.39l1.81 0.05m6 0.17v0.39l-1.1-0.04v-0.38l1.1 0.03m14.42 0.89-1.2-0.05v-0.37l1.2 0.04v0.38m-1.41-0.43v0.37c-0.35 0-0.7-0.02-1.05-0.04v-0.37l1.05 0.04m-83.9-0.7v-0.45l2.46-0.03v0.44l-2.46 0.04m-16.12 0.01v0.46c-0.78 0.04-1.07 0.04-1.78 0.09v-0.46c0.7-0.05 1-0.05 1.78-0.09m13.07 0.04v-0.45l2.69-0.05v0.45l-2.69 0.05m-3.1 0.07v-0.45l2.73-0.06v0.45l-2.73 0.06m-3.15 0.09v-0.46l2.77-0.07v0.45l-2.77 0.08m-3.19 0.1v-0.45l2.81-0.1v0.46l-2.8 0.1m-3.25 0.13v-0.46l2.85-0.12v0.46l-2.85 0.12m27.49-0.57v-0.44h2.5v0.43l-2.5 0.01m2.83-0.01v-0.43h2.45v0.42l-2.45 0.01m2.79-0.01v-0.43h2.08v0.43h-2.08m-8.49 0.04v-0.44l2.53-0.01v0.43l-2.53 0.02m-2.92 0.02v-0.44l2.57-0.02v0.44l-2.57 0.02m-0.35-0.44v0.45h-0.4v-0.44h0.4m27.63 0.43v-0.42l2.2 0.03v0.3l-0.72 0.1-1.48-0.01m-2.55-0.02v-0.42l2.24 0.02v0.42l-2.24-0.02m6.75-0.35-1.69-0.02v0.26l1.69-0.24m-9.33 0.34v-0.42l2.27 0.01v0.42l-2.27-0.01m-2.63-0.02v-0.42l2.3 0.01v0.42l-2.3-0.01m-2.99-0.43v0.42h-0.3v-0.42h0.3m0.33 0.42v-0.43l2.34 0.01v0.43l-2.34-0.01m54.03 0.95v-0.38l1.63 0.06v0.38l-1.63-0.06m1.86 0.07v-0.38l1.6 0.06v0.38l-1.6-0.06m1.82 0.06v-0.38l0.5 0.02v0.38l-0.5-0.02m-5.56-0.19v-0.38l1.66 0.06v0.37l-1.66-0.05m-1.91-0.06v-0.38l1.68 0.05v0.38l-1.68-0.05m-0.23-0.39v0.38h-0.03v-0.38h0.03m24.52 1.39v-0.37l1.36 0.08v0.36l-1.36-0.07m6.05 0.35v-0.36h0.16v0.37l-0.16-0.01m-4.5-0.27v-0.37l1.34 0.08v0.36l-1.34-0.07m1.52 0.09v-0.36l1.32 0.07v0.37l-1.32-0.08m2.8 0.17v-0.36l-1.3-0.09v0.37l1.3 0.08m-12.29-0.67v-0.36l1.45 0.07v0.37l-1.45-0.07m4.85 0.24v-0.37l1.38 0.07v0.37l-1.38-0.07m-3.21-0.17v-0.36l1.43 0.07v0.36l-1.43-0.07m-1.84-0.45v0.37l-1.04-0.05v-0.37l1.04 0.05m4.86 0.61v-0.37l-1.4-0.07v0.36l1.4 0.08m14.71 0.93v-0.37l-1.2-0.09v0.36l1.2 0.1m-2.77-0.21v-0.36l-1.25-0.1v0.37l1.25 0.09m-2.5-0.54v0.36l1.09 0.08v-0.37l-1.09-0.07m3.89 0.64v-0.36l-1.22-0.1v0.37l1.22 0.1m1.54 0.11v-0.36l0.57 0.03v0.37l-0.57-0.04m-36.95 0.42v0.26l-0.71 0.02v-0.3l0.71 0.02m4.37 0.15-1.06 0.03v-0.06l1.06 0.03m-43.27 2.39v0.44l1.9-0.23v-0.44l-1.9 0.23m4.28-0.5v0.44l1.84-0.2v-0.43l-1.84 0.19m-6.47 0.78v0.45l1.93-0.26v-0.44l-1.93 0.25m41.28-2.81v0.25l1.38-0.04v-0.17c-0.46 0-0.92-0.02-1.38-0.04m-36.93 2.27v0.44l1.87-0.21v-0.44l-1.87 0.21m39.86-2.17v0.07l-1.36 0.03v-0.15l1.36 0.05m-54.43 4.33v0.46l0.84-0.15v-0.46l-0.84 0.15m-3.63 1.22 0.88-0.2v-0.47l-0.88 0.2v0.47m4.76-1.43v0.47c0.67-0.13 1.36-0.25 2.05-0.36v-0.46l-2.05 0.35m6.86-1.1v0.45l1.96-0.28v-0.44l-1.95 0.27m-1.15 0.16v0.45l0.88-0.12v-0.45l-0.88 0.12m-3.4 1 0.76-0.13v-0.46l-0.76 0.13v0.46m37.42-4.04v0.4l0.49-0.02v-0.4l-0.49 0.02m-8.3 0.46v0.41l1.63-0.1v-0.4l-1.63 0.09m5.48 0.09 0.58-0.03v-0.4c-0.2 0-0.39 0.02-0.58 0.03v0.4m-1.8-0.3v0.4l1.58-0.1v-0.4l-1.58 0.1m-5.56 0.33v0.41l1.66-0.1v-0.42l-1.66 0.11m3.74-0.23v0.4l1.6-0.1v-0.4l-1.6 0.1m-7.59 0.51v0.42l1.7-0.14v-0.41l-1.7 0.13m-5.96 0.94 1.02-0.1v-0.42l-1.02 0.1v0.42m26.71-2.06v0.39l0.5-0.02v-0.39l-0.5 0.02m0.7 0.36 0.5-0.01v-0.39l-0.5 0.02v0.38m-5.01 0.19 0.57-0.02v-0.4l-0.57 0.03v0.4m-18.29 0.71v0.42l1.61-0.13v-0.42l-1.62 0.13m16.58-1.04v0.4l1.51-0.07v-0.39l-1.51 0.06m-46.97 5.84 1.49-0.34v-0.48l-2.15 0.5v0.32h0.66m34.19-5.1v0.42l1.68-0.12v-0.42l-1.68 0.12m-35.14 5.1v-0.25l-0.84 0.2v0.05h0.84m27.43-10.04v0.24h-0.2v-0.21zm-6.59 0.99 1.62-0.24v0.26zm1.92 0.02h0.67l1.5-0.22v-0.18l-1.4-0.01-0.77 0.11zm-16.31 2.16 1.06-0.12h-1.07zm21.29-2.93v-0.29l2.24-0.36v0.41l-1.57 0.25z"/>
  </g>
  <path d="m87.58 45.36v-43.67h14.32v14.74h13.53v-14.73h14.31v43.67h-14.31v-16.93h-13.53v16.92zm-16.06-26.99c-0.42-4.55-3.28-7.16-7.76-7.16-5.03 0-8.07 4.31-8.07 12.74 0 6.13 1.33 11.89 8.61 11.89 4.61 0 6.8-3.21 7.34-7.4h13.77c-1.28 11.28-9.34 18.08-20.87 18.08-14.43 0-23.17-8.86-23.17-23.05 0-14.13 9.59-22.93 21.78-22.93 13.34 0 20.8 6.61 21.96 17.84h-13.61zm-70.72 26.99v-43.67h21.05c12.56 0 18.62 5.76 18.62 14.74 0 9.4-5.58 15.34-18.14 15.34h-7.22v13.59h-14.31m20.26-23.78c3.33 0 5.76-1.33 5.76-5.1 0-4.06-4.61-4.6-7.64-4.6h-4.08v9.7h5.95z"/>
  <g fill="#5a5b5d">
   <path d="m15.12 43.43v-3.03l-1.57 0.14v-1.97l1.57-0.03v-3.02c-5.68 0.1-10.56 0.27-14.31 0.5v3.02h0.02c3-0.18 6.7-0.32 10.96-0.43v2.07c-3.56 0.3-7.22 0.6-10.98 0.89v2.99l0.97-0.08v0.89h1.54v-1.01l8.47-0.67v1.68h1.76v-1.82l1.57-0.12m6.04-11.65h1.18c0.54 0 1.06-0.02 1.58-0.04v-0.7l5.38-0.66 1.52 0.2c2.65-0.87 4.72-2.2 6.26-3.92l-0.52 0.06a520.65 520.65 0 0 1-35.66-6.31l-0.1-0.02v5.07a363.22 363.22 0 0 0 20.36 3.73v2.59"/>
  </g>
  <path d="m7.87 41.24v0.39l1.51-0.13v-0.38l-1.51 0.12m5.67-0.47v0.38l1.16-0.1v-0.37l-1.16 0.1m-2.2 0.18v0.38c0.52-0.04-0.07 0 0.45-0.05v-0.37l-0.45 0.04m-5.17 0.42v0.4l1.5-0.13v-0.39l-1.5 0.12m3.42-0.28v0.38l1.53-0.12v-0.39l-1.53 0.13m-8.35 0.67v0.4l1.42-0.11v-0.4l-1.43 0.11m3.27-0.26v0.4l1.47-0.12v-0.4l-1.47 0.12m-3.7 0.29v0.42l0.24-0.03v-0.4l-0.24 0.02m2.05-0.17v0.4l1.45-0.11v-0.4l-1.44 0.11m9.82-18.45v0.49l2.73 0.49v-0.49l-2.73-0.49m-6.34-1.22v0.49l2.81 0.55v-0.49l-2.81-0.55m3.19 0.63v0.48l2.77 0.53v-0.49l-2.77-0.53m6.25 1.16v0.49l2.69 0.47v-0.48l-2.7-0.48m14.82 2.45v0.46l2.49 0.36v-0.45l-2.5-0.37m2.84 0.87 0.12 0.02 1.7-0.2-1.82-0.28v0.46m-5.7-1.32v0.47l2.52 0.38v-0.46l-2.52-0.39m-8.89-1.45v0.47l2.65 0.45v-0.47l-2.65-0.46m-15.73-2.99v0.5l2.85 0.58v-0.5l-2.85-0.57m18.74 3.49v0.48l2.6 0.43v-0.48l-2.6-0.42m2.96 0.49v0.46l2.57 0.4v-0.46l-2.57-0.4m-24-4.47v0.49l1.9 0.4v-0.5l-1.9-0.4m1.78 15.53v0.46c-0.79 0.04-1.07 0.04-1.78 0.09v-0.46c0.7-0.05 1-0.05 1.78-0.09m6.82 0.2v-0.46l2.77-0.07v0.45l-2.77 0.08m-3.19 0.1v-0.45l2.81-0.1v0.46l-2.8 0.1m-3.25 0.13v-0.46l2.85-0.12v0.46l-2.85 0.12m12.15-0.84-2.56 0.06v0.45l2.56-0.06v-0.45m0 4.69-0.2 0.02v0.37c0.07 0 0.13 0 0.2-0.02v-0.37"/>
  <g fill="#5a5b5d">
   <path d="m42.6 32.01c5.02 0.55 10.21 1.05 15.62 1.5a9.32 9.32 0 0 1-2.05-4.3c-4.93-0.55-9.78-1.15-14.55-1.79 0.2 1.62 0.53 3.15 0.99 4.59"/>
   <path d="m80.34 31.45c-3.1-0.23-6.15-0.49-9.19-0.76-0.97 3.03-3.1 5.15-6.85 5.15-2 0-3.55-0.44-4.74-1.2v0.74l-0.83 0.13c-5.01-0.07-9.95-0.12-14.75-0.14a19.32 19.32 0 0 0 3.97 5.32c3.97-0.38 7.83-0.78 11.6-1.23v1.2c-3.5 0.35-6.91 0.76-10.22 1.22a20.06 20.06 0 0 0 4.33 2.56c1.94-0.24 3.9-0.46 5.9-0.66v2.35c0.72 0.11 1.46 0.2 2.23 0.27v-2.84l1.02-0.1v3.01h0.02l0.69 0.03 1.02 0.02c0.46 0 0.9-0.01 1.35-0.03v-3.29c4.01-0.32 8.05-0.58 12.06-0.79 2.2-1.67 4-3.82 5.28-6.39l-0.75-0.02 0.84-0.17a21.6 21.6 0 0 0 1.8-5.55c-1.56 0.4-3.15 0.8-4.78 1.18"/>
  </g>
  <path d="m62.81 40.35-1.02 0.1v-1.25l1.02-0.13v1.28m16.73-1.13c-4.53 0.22-9.12 0.5-13.65 0.87v-1.42l0.23-0.03c4.48 0.08 8.97 0.18 13.42 0.3v0.28m3.64-7.58 0.3-0.07v-0.48l-1.85 0.45 1.55 0.1m-3.69 0.38h0.07v-0.02l-0.07 0.02m0.32-0.07v0.1l0.84 0.06v-0.34h-0.01l-0.83 0.18m1.18-0.15v0.34h0.05l0.44-0.1 0.17-0.04v-0.16l-0.66-0.05m0.91 0.07v0.08l0.25-0.06-0.25-0.02m-29.82-2.81v0.4c0.74 0.1 1.47 0.18 2.2 0.26v-0.4l-2.2-0.26m-2.55-0.3v0.42l2.24 0.25v-0.4l-2.24-0.27m-5.21-0.64v0.43l2.3 0.28v-0.42l-2.3-0.29m2.63 0.33v0.42l2.27 0.27v-0.41l-2.27-0.28m26.39 2.74v0.36l1.92 0.16v-0.36l-1.92-0.16m-2.22-0.2v0.37l1.96 0.16v-0.36c-0.66-0.05-1.3-0.1-1.96-0.17m6.56 0.91 0.53 0.04 1.16-0.26-1.69-0.14v0.36m-2.15-0.53v0.35l1.9 0.16v-0.36l-1.9-0.15m3.9 5.21v0.13l-0.65-0.02 0.65-0.11m-27.48-0.31v-0.42l2.2 0.03v0.3l-0.72 0.1-1.48-0.01m-2.55-0.02v-0.42l2.24 0.02v0.42l-2.24-0.02m6.75-0.35-1.69-0.02v0.26l1.69-0.24m-9.33 0.34v-0.42l2.27 0.01v0.42l-2.27-0.01m6.5 5.61v0.44l1.9-0.23v-0.44l-1.9 0.23m4.28-0.5v0.44l1.84-0.2v-0.43l-1.84 0.19m-6.47 0.78v0.45l1.93-0.26v-0.44l-1.93 0.25m4.35-0.54v0.44l1.87-0.21v-0.44l-1.87 0.21m18-1.57v0.41l1.63-0.1v-0.4l-1.63 0.09m5.48 0.09 0.58-0.03v-0.4c-0.2 0-0.39 0.02-0.58 0.03v0.4m-1.8-0.3v0.4l1.58-0.1v-0.4l-1.58 0.1m-5.56 0.33v0.41l1.66-0.1v-0.42l-1.66 0.11m3.74-0.23v0.4l1.6-0.1v-0.4l-1.6 0.1m-7.59 0.51v0.42l1.7-0.14v-0.41l-1.7 0.13m-5.96 0.94 1.02-0.1v-0.42l-1.02 0.1v0.42m4.11-0.79v0.42l1.61-0.13v-0.42l-1.62 0.13m3.8-0.3v0.42l1.68-0.12v-0.42l-1.68 0.12m-14.3-3.95 1.62-0.24v0.26zm1.92 0.02h0.67l1.5-0.22v-0.17l-1.4-0.02-0.77 0.11zm26.51-5.32v0.48l1.1-0.28 0.12-0.51-1.22 0.31m-2.04 5.35v0.4c0.35 0 0.7 0 1.05 0.02l0.2-0.38-1.25-0.04m-31.36 6.3 0.44-0.06v-0.44l-0.96 0.13 0.52 0.37m-5.96-6.45 2.04 0.01v-0.42l-2.28-0.02 0.24 0.43m-0.46-8.14-2.33-0.3 0.06 0.44 2.27 0.29zm12.25 1.45-1.67-0.18v0.4l1.78 0.19-0.11-0.41m12.17 5.14 1.33-0.23v-0.07l-0.87-0.05-0.46 0.35"/>
  <g fill="#5a5b5d">
   <path d="m129.44 42.2 0.3 0.02v-4l-0.24-0.02c-1.82-0.14-3.74-0.29-5.76-0.42v-1.1l5.72 0.12h0.28v-3.07h-0.27c-4.73-0.1-9.4-0.22-14.05-0.37v3.12l6.85 0.17v1.03c-2.19-0.14-4.47-0.27-6.85-0.4v4.5c2.53 0.03 4.84 0.08 6.85 0.14v3.44h1.47v-3.4c2.42 0.08 4.36 0.16 5.7 0.24"/>
   <path d="m101.9 41.72v-5.08l-0.36-0.01v-0.6l0.36 0.02v-3.25l-0.36-0.02v-0.04l-0.26 0.03a654.6 654.6 0 0 1-4.09-0.21c1.6-0.45 3.16-0.92 4.71-1.41v-2.71h7.76c3.86-1.48 7.6-3.11 11.25-4.97l8.83-1.08v-12.38l-0.55 0.4a111.37 111.37 0 0 1-15.66 9.54l-7.59 0.93-1.93 0.23v3.1a151.23 151.23 0 0 1-16.42 5.42v15.73h0.92v-3.4c0.4 0 0.8-0.01 1.19-0.03v3.43h1.81v-3.48c2.82-0.06 5.57-0.11 8.23-0.14v3.62h1.8v-3.64h0.36"/>
  </g>
  <path d="m89.7 36.2-1.2-0.04v-0.68l1.2 0.06v0.66m10.03 0.36-8.23-0.3v-0.48l0.93-0.11 7.3 0.3v0.59m25.13-22.59v0.7c1.04-0.68 2.06-1.37 3.08-2.09v-0.67c-1.02 0.7-2.04 1.39-3.08 2.06m-35.24 15.51v0.5c0.88-0.24 1.75-0.49 2.6-0.74v-0.51a171 171 0 0 1-2.6 0.75m12.14-3.37 2.24-0.85v-0.6c-0.74 0.3-1.48 0.59-2.24 0.87v0.58m19.65-10v0.71c1.02-0.61 2.03-1.24 3.03-1.88v-0.7c-1 0.64-2.01 1.26-3.03 1.87m-25.81 11.57v0.53l2.69-0.88v-0.55l-2.69 0.9m19.16-7.88 1.72-0.2 1.12-0.61v-0.7c-0.94 0.52-1.88 1.03-2.84 1.52m-16.1 6.84v0.56c0.92-0.31 1.83-0.63 2.73-0.96v-0.58l-2.73 0.98m31.08-16.01-1.38 0.98v0.67l1.38-1.01v-0.65m-11.73 7.44v0.7c1-0.55 2-1.12 2.99-1.7v-0.71c-0.99 0.58-1.98 1.15-2.99 1.71m-25.42 10.55v0.51l2.65-0.8v-0.53l-2.65 0.82m36.71 5.7 0.44 0.01v-0.28l-0.44-0.01v0.28m-10.23-0.54v0.3l-1.34-0.05v-0.29l1.34 0.04m-2.88-0.09v0.29l1.36 0.04v-0.29l-1.36-0.04m3.06 0.11v0.28l1.32 0.03v-0.28l-1.32-0.04m8.68 0.22v0.28l1.2 0.03v-0.29l-1.2-0.02m-1.4-0.03v0.28l1.23 0.03v-0.29l-1.23-0.02m-2.84-0.07v0.28l1.26 0.03v-0.28l-1.26-0.03m-1.46-0.04v0.29c0.43 0 0.85 0.02 1.28 0.03v-0.28l-1.28-0.04m2.9 0.08v0.28l1.24 0.03v-0.29l-1.24-0.02m-4.37-0.12v0.29l1.3 0.03v-0.28l-1.3-0.04m-23.22-0.96v0.31l0.25 0.02 1.35-0.17v-0.07l-1.6-0.1m1.83 0.11v0.03l0.2-0.02-0.2-0.01m-3.11-0.17-0.57 0.15v0.13l1.63 0.09v-0.32l-1.06-0.05m-0.96 0.26h0.17v-0.04c-0.06 0-0.11 0.02-0.17 0.04m-5.71 3.52v0.39l-1.1-0.04v-0.38l1.1 0.03m5.97 0.57v-0.38l1.63 0.06v0.38l-1.63-0.06m1.86 0.07v-0.38l1.6 0.06v0.38l-1.6-0.06m1.82 0.06v-0.38l0.5 0.02v0.38l-0.5-0.02m-5.56-0.19v-0.38l1.65 0.06v0.37l-1.65-0.05m-1.91-0.06v-0.38l1.68 0.05v0.38l-1.68-0.05m-0.23-0.39v0.38h-0.03v-0.38h0.03m24.52 1.39v-0.37l1.36 0.08v0.36l-1.36-0.07m6.05 0.35v-0.36h0.16v0.37l-0.16-0.01m-4.5-0.27v-0.37l1.34 0.08v0.36l-1.34-0.07m1.52 0.09v-0.36l1.32 0.07v0.37l-1.32-0.08m2.8 0.17v-0.36l-1.3-0.09v0.37l1.3 0.08m7.08 0.5v-0.37l-1.2-0.09v0.36l1.2 0.1m-2.77-0.21v-0.36l-1.24-0.1v0.37l1.24 0.09m-2.5-0.54v0.36l1.09 0.08v-0.37l-1.09-0.07m3.89 0.64v-0.36l-1.22-0.1v0.37l1.22 0.1m1.54 0.11v-0.36l0.57 0.03v0.37l-0.57-0.04m-36.95 0.42v0.26l-0.71 0.02v-0.3l0.71 0.02m4.37 0.15-1.06 0.03v-0.06l1.06 0.03m-4.18-0.14v0.25l1.38-0.04v-0.17c-0.46 0-0.92-0.02-1.38-0.04m2.93 0.1v0.07l-1.36 0.03v-0.15l1.36 0.05m-6.84-0.12v0.39l0.5-0.02v-0.39l-0.5 0.02m0.7 0.36 0.5-0.01v-0.39l-0.5 0.02v0.38m-1.62-9.12 1.68-0.45v-0.5l-1.68 0.46v0.5m14.32 2.56-0.36-0.02v0.3l0.36 0.03v-0.31m0 3.91-0.36-0.02v0.38l0.36 0.01v-0.37m13.52 0.99 0.45 0.02v-0.37l-0.45-0.02v0.37m0-4.05 0.58 0.02v-0.29l-0.58-0.02v0.3m-114.54 22.89v-8.04h3.88c2.31 0 3.43 1.06 3.43 2.72 0 1.72-1.03 2.82-3.34 2.82h-1.33v2.5h-2.64m3.73-4.38c0.62 0 1.06-0.24 1.06-0.93 0-0.75-0.84-0.85-1.4-0.85h-0.75v1.79h1.1zm7.9 4.38-0.11-0.62c-0.66 0.61-1.33 0.79-2.2 0.79-1.1 0-2.09-0.55-2.09-1.76 0-2.66 4.17-1.46 4.17-2.55 0-0.42-0.52-0.48-0.76-0.48-0.33 0-0.76 0.07-0.82 0.57h-2.23c0-1.24 0.88-1.97 3.2-1.97 2.76 0 2.93 1.03 2.93 2.43v2.73c0 0.34 0.01 0.5 0.31 0.75v0.11h-2.4m-0.23-2.59c-0.76 0.37-1.77 0.2-1.77 0.95 0 0.3 0.28 0.5 0.74 0.5 0.82 0 1.08-0.64 1.03-1.45zm7.07-1.03a0.88 0.88 0 0 0-0.25-0.6 0.78 0.78 0 0 0-0.6-0.24c-0.87 0-1.01 0.9-1.01 1.6 0 0.88 0.33 1.46 1.01 1.46 0.6 0 0.84-0.4 0.9-0.87h2.35c-0.1 0.88-0.5 1.5-1.1 1.89-0.57 0.38-1.33 0.55-2.15 0.55-1.89 0-3.34-1.06-3.34-3.04 0-2 1.4-3.15 3.34-3.15 1.56 0 3.04 0.67 3.2 2.4h-2.35m5.35 1.98v1.64h-2.33v-8.04h2.32v3.98l1.49-1.79h2.71l-2.17 2.27 2.45 3.58h-2.8l-1.24-2.07zm6.72-0.76c0 0.7 0.53 1.15 1.15 1.15 0.37 0 0.7-0.17 0.87-0.52h2.22c-0.4 1.46-1.87 1.94-3.24 1.94-1.87 0-3.32-1.08-3.32-3.04 0-1.92 1.44-3.15 3.31-3.15 2.17 0 3.48 1.5 3.44 3.62h-4.43m2.1-1.19c0-0.53-0.47-1.01-1.02-1.01-0.7 0-1.08 0.39-1.08 1.01zm6.6 3.59c-3.05 0.17-3.42-0.04-3.42-2.06v-2.45h-0.82v-1.34h0.86v-1.82h2.29v1.82h1.11v1.34h-1.11v2.12c0 0.54 0.07 0.73 0.72 0.73h0.37v1.66m9.19-4.97c-0.08-0.83-0.6-1.31-1.43-1.31-0.93 0-1.48 0.79-1.48 2.34 0 1.13 0.24 2.19 1.58 2.19 0.85 0 1.25-0.6 1.35-1.36h2.54c-0.24 2.08-1.72 3.33-3.84 3.33-2.66 0-4.27-1.63-4.27-4.25 0-2.6 1.76-4.22 4-4.22 2.47 0 3.84 1.22 4.05 3.28h-2.5m3.11-3.07h2.32v8.04h-2.32zm5.22 5.64c0 0.7 0.54 1.15 1.15 1.15 0.37 0 0.7-0.17 0.87-0.52h2.22c-0.4 1.46-1.87 1.94-3.23 1.94-1.88 0-3.33-1.08-3.33-3.04 0-1.92 1.44-3.15 3.31-3.15 2.17 0 3.48 1.5 3.44 3.62h-4.43m2.11-1.19c0-0.53-0.48-1.01-1.03-1.01-0.69 0-1.08 0.39-1.08 1.01zm6.87 3.59-0.11-0.62c-0.66 0.61-1.33 0.79-2.2 0.79-1.1 0-2.1-0.55-2.1-1.76 0-2.66 4.18-1.46 4.18-2.55 0-0.42-0.52-0.48-0.76-0.48-0.33 0-0.76 0.07-0.82 0.57h-2.23c0-1.24 0.88-1.97 3.19-1.97 2.77 0 2.94 1.03 2.94 2.43v2.73c0 0.34 0 0.5 0.31 0.75v0.11h-2.4m-0.23-2.59c-0.76 0.37-1.77 0.2-1.77 0.95 0 0.3 0.28 0.5 0.74 0.5 0.81 0 1.08-0.64 1.02-1.45zm3.1-3.26h2.11v1.18h0.02c0.33-0.91 0.9-1.35 1.8-1.35 0.1 0 0.2 0.03 0.3 0.04v2.32c-0.15-0.02-0.32-0.07-0.48-0.07-0.95 0-1.43 0.45-1.43 1.71v2.02h-2.31v-5.85m4.59-2.4h2.32v1.65h-2.31v-1.65m0 8.25v-5.85h2.32v5.85zm3.07-5.85h2.12v0.92c0.53-0.7 1.1-1.09 1.98-1.09 1.54 0 2.27 0.9 2.27 2.52v3.5h-2.34v-3.1c0-0.57-0.15-1.09-0.81-1.09-0.72 0-0.9 0.46-0.9 1.2v3h-2.33v-5.86zm9.45 6.15c0 0.07 0.04 0.17 0.15 0.26 0.1 0.09 0.26 0.14 0.5 0.14 0.67 0 0.94-0.3 0.94-1.14v-0.48c-0.34 0.34-0.84 0.64-1.68 0.64-1.62 0-2.54-1.27-2.54-2.77 0-1.44 0.69-2.97 2.6-2.97 0.71 0 1.37 0.37 1.78 0.94v-0.77h2.05v4.71c0 1.75-0.2 3.13-3.08 3.13-2.07 0-2.94-0.83-3.05-1.69h2.33m-0.31-3.33c0 0.58 0.29 1.13 0.92 1.14 0.7 0.03 0.98-0.58 0.98-1.2 0-0.65-0.25-1.27-0.98-1.27-0.71 0-0.92 0.57-0.92 1.33zm8.36 3.03v-8.04h2.63v2.72h2.49v-2.72h2.64v8.04h-2.64v-3.12h-2.49v3.12zm11.76-6.02c2.07 0 3.34 1.22 3.34 3.04 0 2.15-1.45 3.15-3.33 3.15-1.87 0-3.33-1.03-3.33-3.03 0-2.03 1.34-3.16 3.32-3.16m-1 3.03c0 1.11 0.42 1.6 1 1.6 0.63 0 1-0.49 1-1.6 0-0.85-0.37-1.5-0.98-1.47-0.79 0-1.02 0.82-1.02 1.47zm11.16 2.99h-2.15v-0.85c-0.59 0.8-1.15 1.03-2.12 1.03-1.27 0-2.1-0.78-2.1-2.46v-3.57h2.33v3.16c0 0.8 0.28 1.06 0.83 1.06 0.67 0 0.89-0.5 0.89-1.4v-2.82h2.32zm2.66-1.82c0 0.23 0.09 0.41 0.24 0.54 0.15 0.1 0.35 0.18 0.58 0.18 0.35 0 0.73-0.12 0.73-0.53 0-0.94-3.58-0.19-3.58-2.46 0-1.5 1.55-1.93 2.77-1.93 1.27 0 2.77 0.3 2.9 1.84h-2.1a0.61 0.61 0 0 0-0.23-0.42 0.72 0.72 0 0 0-0.47-0.14c-0.4 0-0.66 0.12-0.66 0.4 0 0.82 3.7 0.28 3.7 2.47 0 1.21-1 2.04-3.15 2.04-1.34 0-2.82-0.41-2.94-1.99zm6.43-0.58c0 0.7 0.54 1.15 1.15 1.15 0.37 0 0.7-0.17 0.87-0.52h2.22c-0.4 1.46-1.87 1.94-3.23 1.94-1.88 0-3.33-1.08-3.33-3.04 0-1.92 1.44-3.15 3.31-3.15 2.17 0 3.48 1.5 3.44 3.62h-4.43m2.11-1.19c0-0.53-0.48-1.01-1.03-1.01-0.69 0-1.08 0.39-1.08 1.01z"/>
 </g>
</svg>